<?xml version="1.0" encoding="utf-8"?>
<!-- Generator: Adobe Illustrator 21.0.0, SVG Export Plug-In . SVG Version: 6.00 Build 0)  -->
<svg version="1.1" id="Ebene_1" xmlns="http://www.w3.org/2000/svg" xmlns:xlink="http://www.w3.org/1999/xlink" x="0px" y="0px"
	 viewBox="0 0 348 358" style="enable-background:new 0 0 348 358;" xml:space="preserve">
<g>
	<path d="M175,27c41.1,0,79.8,16,108.9,45.1C313,101.2,329,139.9,329,181c0,41.1-16,79.8-45.1,108.9S216.1,335,175,335
		s-79.8-16-108.9-45.1S21,222.1,21,181c0-41.1,16-79.8,45.1-108.9C95.2,43,133.9,27,175,27 M175,17C84.4,17,11,90.4,11,181
		s73.4,164,164,164s164-73.4,164-164S265.6,17,175,17L175,17z"/>
</g>
<g>
	<g>
		<path d="M182.3,129.8v2.7c-2.4,0.4-4.4,1-6,1.7c-1.7,0.7-3.1,1.7-4.4,2.9c-1.3,1.2-2.4,2.6-3.3,4.2c-1,1.6-1.9,3.5-2.9,5.6
			l-38.8,84.5h-3l-41.7-85.6c-2.2-4.5-3.7-7.2-4.5-8.1c-1.4-1.5-3-2.7-5-3.6c-2-0.9-4.7-1.4-8.1-1.6v-2.7h45.4v2.7
			c-2.6,0.2-4.7,0.6-6.4,1c-1.6,0.4-2.9,0.9-3.7,1.4c-0.9,0.6-1.5,1.2-1.8,1.9c-0.3,0.7-0.5,1.5-0.5,2.4c0,2.5,1.3,6.3,3.8,11.4
			l28.3,58.2l26.3-57.5c2.6-5.7,3.9-9.6,3.9-11.8c0-1.5-0.9-2.9-2.7-4.3c-1.8-1.3-4.8-2.3-9.1-2.7v-2.7H182.3z"/>
	</g>
	<g>
		<path d="M166.7,231.6v-2.7c2.4-0.4,4.4-1,6-1.7c1.7-0.7,3.1-1.7,4.4-2.9c1.3-1.2,2.4-2.6,3.3-4.2c1-1.6,1.9-3.5,2.9-5.6l38.8-84.5
			h3l41.7,85.6c2.2,4.5,3.7,7.2,4.5,8.1c1.4,1.5,3,2.7,5,3.6c2,0.9,4.7,1.4,8.1,1.6v2.7h-45.4v-2.7c2.6-0.2,4.7-0.6,6.4-1
			c1.6-0.4,2.9-0.9,3.7-1.4c0.9-0.6,1.5-1.2,1.8-1.9c0.3-0.7,0.5-1.5,0.5-2.4c0-2.5-1.3-6.3-3.8-11.4l-28.3-58.2L193.1,210
			c-2.6,5.7-3.9,9.6-3.9,11.8c0,1.5,0.9,2.9,2.7,4.3c1.8,1.3,4.8,2.3,9.1,2.7v2.7H166.7z"/>
	</g>
</g>
</svg>
