<?xml version="1.0" encoding="utf-8"?>
<!-- Generator: Adobe Illustrator 21.0.0, SVG Export Plug-In . SVG Version: 6.00 Build 0)  -->
<svg version="1.1" id="Ebene_1" xmlns="http://www.w3.org/2000/svg" xmlns:xlink="http://www.w3.org/1999/xlink" x="0px" y="0px"
	 viewBox="0 0 300 296" style="enable-background:new 0 0 300 296;" xml:space="preserve">
<style type="text/css">
	.st0{fill:#FFFFFF;}
</style>
<g>
	<path class="st0" d="M153,9c36.6,0,71,14.3,96.9,40.1C275.7,75,290,109.4,290,146s-14.3,71-40.1,96.9C224,268.7,189.6,283,153,283
		s-71-14.3-96.9-40.1C30.3,217,16,182.6,16,146s14.3-71,40.1-96.9C82,23.3,116.4,9,153,9 M153,3C74,3,10,67,10,146s64,143,143,143
		s143-64,143-143S232,3,153,3L153,3z"/>
</g>
<g>
	<path class="st0" d="M158.9,95.9v2.7c-2.1,0.4-3.9,1-5.4,1.7c-1.5,0.7-2.8,1.7-3.9,2.9c-1.1,1.2-2.1,2.6-3,4.2
		c-0.9,1.6-1.7,3.5-2.6,5.6l-34.6,84.5h-2.7l-37.2-85.6c-2-4.5-3.3-7.2-4-8.1c-1.2-1.5-2.7-2.7-4.5-3.6c-1.8-0.9-4.2-1.4-7.3-1.6
		v-2.7h40.6v2.7c-2.3,0.2-4.2,0.6-5.7,1c-1.4,0.4-2.6,0.9-3.3,1.4c-0.8,0.6-1.3,1.2-1.6,1.9c-0.3,0.7-0.4,1.5-0.4,2.4
		c0,2.5,1.1,6.3,3.4,11.4l25.3,58.2l23.4-57.5c2.3-5.7,3.4-9.6,3.4-11.8c0-1.5-0.8-2.9-2.4-4.3c-1.6-1.3-4.3-2.3-8.2-2.7v-2.7H158.9
		z"/>
</g>
<g>
	<path class="st0" d="M143.5,197.2v-2.7c2.1-0.4,3.9-1,5.4-1.7c1.5-0.7,2.8-1.7,3.9-2.9c1.1-1.2,2.1-2.6,3-4.2
		c0.9-1.6,1.7-3.5,2.6-5.6L193,95.6h2.7l37.2,85.6c2,4.5,3.3,7.2,4,8.1c1.2,1.5,2.7,2.7,4.5,3.6c1.8,0.9,4.2,1.4,7.3,1.6v2.7h-40.6
		v-2.7c2.3-0.2,4.2-0.6,5.7-1c1.4-0.4,2.6-0.9,3.3-1.4c0.8-0.6,1.3-1.2,1.6-1.9c0.3-0.7,0.4-1.5,0.4-2.4c0-2.5-1.1-6.3-3.4-11.4
		l-25.3-58.2L167,175.7c-2.3,5.7-3.4,9.6-3.4,11.8c0,1.5,0.8,2.9,2.4,4.3c1.6,1.3,4.3,2.3,8.2,2.7v2.7H143.5z"/>
</g>
</svg>
